<svg xmlns="http://www.w3.org/2000/svg" width="69.709" height="167.789">
    <path class="torch-holder" d="M21.1 100.766l2.474 11.554c2.226 21.172 3.713 35.517 4.84 55.47h10.7c.996-18.555 2.55-35.483 5.16-55.34l1.885-11.715z" fill="#0f5546"/>
    <path class="torch-guard" d="M18.268 93.69c-4.645 2.682-4.288 9.12 3.184 9.12s16.488-.022 24.29-.022c7.375 0 7.133-7.166 3.314-9.37-7.273.066-24.953.272-30.788.272z" fill="#1a9076"/>
    <path class="fire-body" d="M34.147 0s-.696 23.636-20.894 42.526c-.307-12.548-3.38-15.337-3.38-15.337C.923 50.335-11.275 71.633 21.2 96.206c12.924 0 12.923.008 24.09.008 4.752-1.917 44.018-34.256 11.902-79.483.585 10.208-4.61 18.995-4.61 18.995S44.286 17.777 34.146 0z" fill="#1a90aa"/>
    <path class="fire-core" d="M34.38 31.726s-.466 15.837-14 28.495c-.206-8.407-2.265-10.276-2.265-10.276-5.997 15.51-14.17 29.78 7.59 46.246 8.66 0 8.66.005 16.142.005 3.184-1.285 29.494-22.953 7.975-53.258.392 6.84-3.09 12.727-3.09 12.727S41.175 43.638 34.38 31.726z" opacity=".37" fill="#fff"/>
    </svg>