<?xml version="1.0" encoding="UTF-8" standalone="no"?>
<svg
   xmlns:dc="http://purl.org/dc/elements/1.1/"
   xmlns:cc="http://creativecommons.org/ns#"
   xmlns:rdf="http://www.w3.org/1999/02/22-rdf-syntax-ns#"
   xmlns:svg="http://www.w3.org/2000/svg"
   xmlns="http://www.w3.org/2000/svg"
   xmlns:sodipodi="http://sodipodi.sourceforge.net/DTD/sodipodi-0.dtd"
   xmlns:inkscape="http://www.inkscape.org/namespaces/inkscape"
   width="1920"
   height="1200"
   id="svg2"
   version="1.1"
   inkscape:version="0.48.4 r9939"
   sodipodi:docname="spithabanner.svg">
  <metadata
     id="metadata16">
    <rdf:RDF>
      <cc:Work
         rdf:about="">
        <dc:format>image/svg+xml</dc:format>
        <dc:type
           rdf:resource="http://purl.org/dc/dcmitype/StillImage" />
        <dc:title />
      </cc:Work>
    </rdf:RDF>
  </metadata>
  <defs
     id="defs14" />
  <sodipodi:namedview
     pagecolor="#ffffff"
     bordercolor="#666666"
     borderopacity="1"
     objecttolerance="10"
     gridtolerance="10"
     guidetolerance="10"
     inkscape:pageopacity="0"
     inkscape:pageshadow="2"
     inkscape:window-width="1366"
     inkscape:window-height="705"
     id="namedview12"
     showgrid="false"
     fit-margin-top="0"
     fit-margin-left="0"
     fit-margin-right="0"
     fit-margin-bottom="0"
     inkscape:zoom="0.34705882"
     inkscape:cx="-27.79661"
     inkscape:cy="682.68016"
     inkscape:window-x="-8"
     inkscape:window-y="-8"
     inkscape:window-maximized="1"
     inkscape:current-layer="svg2" />
  <rect
     style="fill:#080b0c;fill-opacity:1;fill-rule:nonzero;stroke:none"
     id="rect3763"
     width="1920"
     height="1200"
     x="0"
     y="0" />
  <g
     id="g3765"
     transform="matrix(4.2615467,0,0,4.2615467,811.46591,242.47754)">
    <path
       id="path4"
       d="m 21.1,100.766 2.474,11.554 c 2.226,21.172 3.713,35.517 4.84,55.47 h 10.7 c 0.996,-18.555 2.55,-35.483 5.16,-55.34 l 1.885,-11.715 z"
       class="torch-holder"
       inkscape:connector-curvature="0"
       style="fill:#0f5546" />
    <path
       id="path6"
       d="m 18.268,93.69 c -4.645,2.682 -4.288,9.12 3.184,9.12 7.472,0 16.488,-0.022 24.29,-0.022 7.375,0 7.133,-7.166 3.314,-9.37 -7.273,0.066 -24.953,0.272 -30.788,0.272 z"
       class="torch-guard"
       inkscape:connector-curvature="0"
       style="fill:#1a9076" />
    <path
       id="path8"
       d="m 34.147,0 c 0,0 -0.696,23.636 -20.894,42.526 C 12.946,29.978 9.873,27.189 9.873,27.189 0.923,50.335 -11.275,71.633 21.2,96.206 c 12.924,0 12.923,0.008 24.09,0.008 4.752,-1.917 44.018,-34.256 11.902,-79.483 0.585,10.208 -4.61,18.995 -4.61,18.995 0,0 -8.296,-17.949 -18.436,-35.726 z"
       class="fire-body"
       inkscape:connector-curvature="0"
       style="fill:#1a90aa" />
    <path
       id="path10"
       d="m 34.38,31.726 c 0,0 -0.466,15.837 -14,28.495 -0.206,-8.407 -2.265,-10.276 -2.265,-10.276 -5.997,15.51 -14.17,29.78 7.59,46.246 8.66,0 8.66,0.005 16.142,0.005 3.184,-1.285 29.494,-22.953 7.975,-53.258 0.392,6.84 -3.09,12.727 -3.09,12.727 0,0 -5.557,-12.027 -12.352,-23.939 z"
       class="fire-core"
       inkscape:connector-curvature="0"
       style="opacity:0.37000002;fill:#ffffff" />
  </g>
</svg>
